<?xml version="1.0" encoding="UTF-8" standalone="no"?>
<!DOCTYPE svg PUBLIC "-//W3C//DTD SVG 1.1//EN" "http://www.w3.org/Graphics/SVG/1.1/DTD/svg11.dtd">
<svg width="100%" height="100%" viewBox="0 0 214 222" version="1.1" xmlns="http://www.w3.org/2000/svg" xmlns:xlink="http://www.w3.org/1999/xlink" xml:space="preserve" xmlns:serif="http://www.serif.com/" style="fill-rule:evenodd;clip-rule:evenodd;stroke-linejoin:round;stroke-miterlimit:2;">
    <g transform="matrix(0.892754,0,0,1.28205,-107.131,-456.41)">
        <path d="M263.392,512L176.006,512C145.096,512 120,494.525 120,473L120,395C120,373.475 145.096,356 176.006,356L302.749,356C333.66,356 358.755,373.475 358.755,395L358.755,473C358.755,473.408 358.746,473.814 358.729,474.218C358.746,474.506 358.755,474.796 358.755,475.087L358.755,515.218C358.755,524.099 352.619,528.417 342.302,528.417L337.398,528.417C308.643,526.597 302.552,512.905 263.392,512Z" style="fill:rgb(45,110,168);"/>
    </g>
    <g transform="matrix(0.244839,0,0,0.24216,36.0194,38)">
        <path d="M316.9,18C311.6,7 300.4,0 288.1,0C275.8,0 264.7,7 259.3,18L195,150.3L51.4,171.5C39.4,173.3 29.4,181.7 25.7,193.2C22,204.7 25,217.4 33.6,225.9L137.8,329L113.2,474.7C111.2,486.7 116.2,498.9 126.1,506C136,513.1 149.1,514 159.9,508.3L288.2,439.8L416.5,508.3C427.3,514 440.4,513.2 450.3,506C460.2,498.8 465.2,486.7 463.2,474.7L438.5,329L542.7,225.9C551.3,217.4 554.4,204.7 550.6,193.2C546.8,181.7 536.9,173.3 524.9,171.5L381.2,150.3L316.9,18Z" style="fill:white;fill-rule:nonzero;"/>
    </g>
</svg>
