<?xml version="1.0" encoding="UTF-8" standalone="no"?><!DOCTYPE svg PUBLIC "-//W3C//DTD SVG 1.1//EN" "http://www.w3.org/Graphics/SVG/1.1/DTD/svg11.dtd"><svg width="100%" height="100%" viewBox="0 0 667 691" version="1.1" xmlns="http://www.w3.org/2000/svg" xmlns:xlink="http://www.w3.org/1999/xlink" xml:space="preserve" xmlns:serif="http://www.serif.com/" style="fill-rule:evenodd;clip-rule:evenodd;stroke-linejoin:round;stroke-miterlimit:2;"><g><path d="M400.043,625l-243.793,-0c-86.237,-0 -156.25,-70.013 -156.25,-156.25l-0,-312.5c-0,-86.237 70.013,-156.25 156.25,-156.25l353.594,0c86.236,0 156.25,70.013 156.25,156.25l-0,312.5c-0,1.633 -0.025,3.26 -0.075,4.881c0.049,1.153 0.075,2.314 0.075,3.482l-0,160.781c-0,35.58 -17.119,52.878 -45.903,52.878l-13.68,-0c-80.223,-7.289 -97.217,-62.147 -206.468,-65.772Z" style="fill:#2d6ea8;"/><clipPath id="_clip1"><path d="M400.043,625l-243.793,-0c-86.237,-0 -156.25,-70.013 -156.25,-156.25l-0,-312.5c-0,-86.237 70.013,-156.25 156.25,-156.25l353.594,0c86.236,0 156.25,70.013 156.25,156.25l-0,312.5c-0,1.633 -0.025,3.26 -0.075,4.881c0.049,1.153 0.075,2.314 0.075,3.482l-0,160.781c-0,35.58 -17.119,52.878 -45.903,52.878l-13.68,-0c-80.223,-7.289 -97.217,-62.147 -206.468,-65.772Z"/></clipPath><g clip-path="url(#_clip1)"><path d="M283.047,323.385l-102.786,0c-13.122,0 -23.777,-10.654 -23.777,-23.777l0,-46.196c0,-13.123 10.655,-23.777 23.777,-23.777l102.786,0l-0,-85.523c-0,-13.998 11.364,-25.362 25.362,-25.362l49.275,0c13.998,0 25.363,11.364 25.363,25.362l-0,85.523l102.785,0c13.123,0 23.777,10.654 23.777,23.777l0,46.196c0,13.123 -10.654,23.777 -23.777,23.777l-102.785,0l-0,82.503c-0,42.123 -51.627,100.362 -84.375,100.362l-2.763,-0c-13.998,-0 -12.862,-11.364 -12.862,-25.362l-0,-157.503Z" style="fill:#fff;"/></g></g></svg>