<?xml version="1.0" encoding="UTF-8" standalone="no"?>
<!DOCTYPE svg PUBLIC "-//W3C//DTD SVG 1.1//EN" "http://www.w3.org/Graphics/SVG/1.1/DTD/svg11.dtd">
<svg width="100%" height="100%" viewBox="0 0 2242 561" version="1.1" xmlns="http://www.w3.org/2000/svg" xmlns:xlink="http://www.w3.org/1999/xlink" xml:space="preserve" xmlns:serif="http://www.serif.com/" style="fill-rule:evenodd;clip-rule:evenodd;stroke-linejoin:round;stroke-miterlimit:2;">
    <g transform="matrix(2.53745,0,0,2.53745,-301.957,-877.934)">
        <g transform="matrix(0.180494,0,0,0.180494,343.999,376.824)">
            <path d="M305.269,654.994C273.423,654.994 243.74,649.883 216.218,639.66C189.09,629.045 165.501,614.105 145.45,594.84C125.398,575.575 109.672,552.969 98.27,527.02C87.262,501.071 81.758,472.567 81.758,441.508C81.758,410.448 87.262,381.944 98.27,355.995C109.672,330.047 125.398,307.44 145.45,288.175C165.894,268.91 189.68,254.167 216.808,243.944C243.936,233.329 273.62,228.021 305.859,228.021C341.637,228.021 373.876,234.312 402.576,246.893C431.67,259.081 456.046,277.167 475.704,301.149L414.371,357.764C400.217,341.645 384.491,329.653 367.192,321.79C349.893,313.534 331.021,309.406 310.577,309.406C291.312,309.406 273.62,312.551 257.5,318.842C241.381,325.132 227.423,334.175 215.629,345.97C203.834,357.764 194.595,371.722 187.911,387.841C181.62,403.961 178.475,421.85 178.475,441.508C178.475,461.166 181.62,479.054 187.911,495.174C194.595,511.294 203.834,525.251 215.629,537.046C227.423,548.84 241.381,557.883 257.5,564.174C273.62,570.464 291.312,573.609 310.577,573.609C331.021,573.609 349.893,569.678 367.192,561.815C384.491,553.558 400.217,541.174 414.371,524.661L475.704,581.276C456.046,605.259 431.67,623.541 402.576,636.122C373.876,648.703 341.44,654.994 305.269,654.994Z" style="fill:rgb(45,110,168);fill-rule:nonzero;"/>
            <path d="M823.061,235.098L918.599,235.098L918.599,647.917L823.061,647.917L823.061,235.098ZM635.524,647.917L539.986,647.917L539.986,235.098L635.524,235.098L635.524,647.917ZM830.138,478.661L628.447,478.661L628.447,397.867L830.138,397.867L830.138,478.661Z" style="fill:rgb(45,110,168);fill-rule:nonzero;"/>
            <path d="M1016.5,647.917L1016.5,235.098L1195.19,235.098C1232.14,235.098 1263.99,241.192 1290.73,253.38C1317.46,265.175 1338.1,282.278 1352.65,304.688C1367.19,327.098 1374.47,353.833 1374.47,384.892C1374.47,415.559 1367.19,442.097 1352.65,464.507C1338.1,486.524 1317.46,503.43 1290.73,515.225C1263.99,527.02 1232.14,532.917 1195.19,532.917L1069.57,532.917L1112.03,491.046L1112.03,647.917L1016.5,647.917ZM1278.93,647.917L1175.73,498.123L1277.75,498.123L1382.14,647.917L1278.93,647.917ZM1112.03,501.661L1069.57,456.841L1189.88,456.841C1219.37,456.841 1241.38,450.55 1255.93,437.969C1270.48,424.995 1277.75,407.303 1277.75,384.892C1277.75,362.089 1270.48,344.397 1255.93,331.816C1241.38,319.235 1219.37,312.944 1189.88,312.944L1069.57,312.944L1112.03,267.534L1112.03,501.661Z" style="fill:rgb(45,110,168);fill-rule:nonzero;"/>
            <rect x="1449.96" y="235.098" width="95.538" height="412.818" style="fill:rgb(45,110,168);fill-rule:nonzero;"/>
            <path d="M1779.03,654.994C1746.01,654.994 1714.36,650.669 1684.08,642.019C1653.81,632.977 1629.43,621.378 1610.95,607.225L1643.39,535.276C1661.08,547.857 1681.92,558.276 1705.9,566.533C1730.28,574.396 1754.85,578.327 1779.62,578.327C1798.49,578.327 1813.63,576.558 1825.03,573.02C1836.83,569.088 1845.48,563.78 1850.98,557.097C1856.48,550.413 1859.24,542.746 1859.24,534.097C1859.24,523.088 1854.91,514.439 1846.26,508.148C1837.61,501.465 1826.21,496.157 1812.06,492.225C1797.9,487.901 1782.18,483.969 1764.88,480.43C1747.97,476.499 1730.87,471.781 1713.57,466.277C1696.66,460.772 1681.13,453.696 1666.98,445.046C1652.83,436.396 1641.23,424.995 1632.19,410.841C1623.54,396.687 1619.21,378.602 1619.21,356.585C1619.21,332.995 1625.5,311.568 1638.08,292.303C1651.06,272.645 1670.32,257.115 1695.88,245.714C1721.83,233.919 1754.26,228.021 1793.18,228.021C1819.13,228.021 1844.69,231.167 1869.85,237.457C1895.01,243.355 1917.23,252.397 1936.49,264.585L1907.01,337.123C1887.74,326.115 1868.48,318.055 1849.21,312.944C1829.94,307.44 1811.07,304.688 1792.6,304.688C1774.12,304.688 1758.98,306.85 1747.18,311.175C1735.39,315.5 1726.94,321.2 1721.83,328.277C1716.72,334.961 1714.16,342.824 1714.16,351.867C1714.16,362.482 1718.48,371.132 1727.13,377.816C1735.78,384.106 1747.18,389.217 1761.34,393.149C1775.49,397.08 1791.02,401.012 1807.93,404.944C1825.23,408.875 1842.33,413.397 1859.24,418.508C1876.54,423.619 1892.26,430.499 1906.41,439.149C1920.57,447.798 1931.97,459.2 1940.62,473.354C1949.66,487.507 1954.18,505.396 1954.18,527.02C1954.18,550.216 1947.7,571.447 1934.72,590.712C1921.75,609.977 1902.29,625.507 1876.34,637.301C1850.78,649.096 1818.35,654.994 1779.03,654.994Z" style="fill:rgb(45,110,168);fill-rule:nonzero;"/>
            <path d="M2099.26,647.917L2099.26,312.944L1967.16,312.944L1967.16,235.098L2326.9,235.098L2326.9,312.944L2194.8,312.944L2194.8,647.917L2099.26,647.917Z" style="fill:rgb(45,110,168);fill-rule:nonzero;"/>
            <path d="M2378.21,647.917L2378.21,235.098L2457.23,235.098L2632.97,526.43L2591.1,526.43L2763.9,235.098L2842.33,235.098L2843.51,647.917L2753.87,647.917L2753.28,372.508L2769.8,372.508L2631.8,604.276L2588.74,604.276L2447.8,372.508L2467.85,372.508L2467.85,647.917L2378.21,647.917Z" style="fill:rgb(45,110,168);fill-rule:nonzero;"/>
            <path d="M3029.28,401.405L3228.02,401.405L3228.02,475.713L3029.28,475.713L3029.28,401.405ZM3036.36,571.251L3261.05,571.251L3261.05,647.917L2941.41,647.917L2941.41,235.098L3253.38,235.098L3253.38,311.765L3036.36,311.765L3036.36,571.251Z" style="fill:rgb(45,110,168);fill-rule:nonzero;"/>
            <path d="M3472.77,654.994C3439.74,654.994 3408.09,650.669 3377.82,642.019C3347.54,632.977 3323.17,621.378 3304.69,607.225L3337.13,535.276C3354.82,547.857 3375.66,558.276 3399.64,566.533C3424.01,574.396 3448.59,578.327 3473.36,578.327C3492.23,578.327 3507.36,576.558 3518.77,573.02C3530.56,569.088 3539.21,563.78 3544.71,557.097C3550.22,550.413 3552.97,542.746 3552.97,534.097C3552.97,523.088 3548.65,514.439 3540,508.148C3531.35,501.465 3519.95,496.157 3505.79,492.225C3491.64,487.901 3475.91,483.969 3458.61,480.43C3441.71,476.499 3424.6,471.781 3407.31,466.277C3390.4,460.772 3374.87,453.696 3360.72,445.046C3346.56,436.396 3334.96,424.995 3325.92,410.841C3317.27,396.687 3312.95,378.602 3312.95,356.585C3312.95,332.995 3319.24,311.568 3331.82,292.303C3344.79,272.645 3364.06,257.115 3389.61,245.714C3415.56,233.919 3448,228.021 3486.92,228.021C3512.87,228.021 3538.42,231.167 3563.59,237.457C3588.75,243.355 3610.96,252.397 3630.23,264.585L3600.74,337.123C3581.47,326.115 3562.21,318.055 3542.95,312.944C3523.68,307.44 3504.81,304.688 3486.33,304.688C3467.85,304.688 3452.72,306.85 3440.92,311.175C3429.12,315.5 3420.67,321.2 3415.56,328.277C3410.45,334.961 3407.89,342.824 3407.89,351.867C3407.89,362.482 3412.22,371.132 3420.87,377.816C3429.52,384.106 3440.92,389.217 3455.07,393.149C3469.23,397.08 3484.76,401.012 3501.66,404.944C3518.96,408.875 3536.07,413.397 3552.97,418.508C3570.27,423.619 3586,430.499 3600.15,439.149C3614.3,447.798 3625.7,459.2 3634.36,473.354C3643.4,487.507 3647.92,505.396 3647.92,527.02C3647.92,550.216 3641.43,571.447 3628.46,590.712C3615.48,609.977 3596.02,625.507 3570.07,637.301C3544.52,649.096 3512.08,654.994 3472.77,654.994Z" style="fill:rgb(45,110,168);fill-rule:nonzero;"/>
        </g>
        <g transform="matrix(0.892754,0,0,1.28205,11.8695,-110.42)">
            <path d="M263.392,512L176.006,512C145.096,512 120,494.525 120,473L120,395C120,373.475 145.096,356 176.006,356L302.749,356C333.66,356 358.755,373.475 358.755,395L358.755,473C358.755,473.408 358.746,473.814 358.729,474.218C358.746,474.506 358.755,474.796 358.755,475.087L358.755,515.218C358.755,524.099 352.619,528.417 342.302,528.417L337.398,528.417C308.643,526.597 302.552,512.905 263.392,512Z" style="fill:rgb(45,110,168);"/>
            <clipPath id="_clip1">
                <path d="M263.392,512L176.006,512C145.096,512 120,494.525 120,473L120,395C120,373.475 145.096,356 176.006,356L302.749,356C333.66,356 358.755,373.475 358.755,395L358.755,473C358.755,473.408 358.746,473.814 358.729,474.218C358.746,474.506 358.755,474.796 358.755,475.087L358.755,515.218C358.755,524.099 352.619,528.417 342.302,528.417L337.398,528.417C308.643,526.597 302.552,512.905 263.392,512Z"/>
            </clipPath>
            <g clip-path="url(#_clip1)">
                <g transform="matrix(1.12013,0,0,0.73125,18.1522,276.573)">
                    <path d="M181.5,219L148.609,219C144.409,219 141,215.363 141,210.884L141,195.116C141,190.637 144.409,187 148.609,187L181.5,187L181.5,157.808C181.5,153.03 185.137,149.151 189.616,149.151L205.384,149.151C209.863,149.151 213.5,153.03 213.5,157.808L213.5,187L246.391,187C250.591,187 254,190.637 254,195.116L254,210.884C254,215.363 250.591,219 246.391,219L213.5,219L213.5,247.161C213.5,261.539 196.979,281.418 186.5,281.418L185.616,281.418C181.137,281.418 181.5,277.539 181.5,272.761L181.5,219Z" style="fill:white;"/>
                </g>
            </g>
        </g>
    </g>
</svg>
